# xmcd CD database file
#
# Track frame offsets:
#	150
#	23222
#	49958
#	81643
#	103170
#	132930
#	167689
#
# Disc length: 2622 seconds
#
# Revision: 0
# Processed by: cddbd v1.5.2PL0 Copyright (c) Steve Scherf et al.
# Submitted via: CDex 1.70beta2
#
DISCID=5e0a3c07
DTITLE=Afonso Pais Trio - Subsequências
DYEAR=2008
DGENRE=Jazz
TTITLE0=Desconserto
TTITLE1=Mestre Bemvaiorna
TTITLE2=Subsequências
TTITLE3=Inside
TTITLE4=Quando For
TTITLE5=Considerando
TTITLE6=Roda Dentada
EXTD=YEAR: 2008
EXTT0=
EXTT1=
EXTT2=
EXTT3=
EXTT4=
EXTT5=
EXTT6=
PLAYORDER=
